{"asset":{"version":"2.0","generator":"Blockbench 4.9.4 glTF exporter"},"scenes":[{"nodes":[9],"name":"blockbench_export"}],"scene":0,"nodes":[{"name":"Body","mesh":0},{"name":"Head","mesh":1},{"name":"Top Panel","mesh":2},{"name":"Face","mesh":3},{"name":"Left Shoulder","mesh":4},{"name":"Right Shoulder","mesh":5},{"rotation":[-0.08715574274765817,0,0,0.9961946980917455],"name":"Left Arm","mesh":6},{"rotation":[0.08715574274765817,0,0,0.9961946980917455],"name":"Right Arm","mesh":7},{"name":"Front Panel","mesh":8},{"children":[0,1,2,3,4,5,6,7,8]}],"bufferViews":[{"buffer":0,"byteOffset":0,"byteLength":960,"target":34962,"byteStride":12},{"buffer":0,"byteOffset":960,"byteLength":960,"target":34962,"byteStride":12},{"buffer":0,"byteOffset":1920,"byteLength":640,"target":34962,"byteStride":8},{"buffer":0,"byteOffset":2560,"byteLength":192,"target":34963},{"buffer":0,"byteOffset":2752,"byteLength":288,"target":34962,"byteStride":12},{"buffer":0,"byteOffset":3040,"byteLength":288,"target":34962,"byteStride":12},{"buffer":0,"byteOffset":3328,"byteLength":192,"target":34962,"byteStride":8},{"buffer":0,"byteOffset":3520,"byteLength":72,"target":34963},{"buffer":0,"byteOffset":3592,"byteLength":288,"target":34962,"byteStride":12},{"buffer":0,"byteOffset":3880,"byteLength":288,"target":34962,"byteStride":12},{"buffer":0,"byteOffset":4168,"byteLength":192,"target":34962,"byteStride":8},{"buffer":0,"byteOffset":4360,"byteLength":72,"target":34963},{"buffer":0,"byteOffset":4432,"byteLength":288,"target":34962,"byteStride":12},{"buffer":0,"byteOffset":4720,"byteLength":288,"target":34962,"byteStride":12},{"buffer":0,"byteOffset":5008,"byteLength":192,"target":34962,"byteStride":8},{"buffer":0,"byteOffset":5200,"byteLength":72,"target":34963},{"buffer":0,"byteOffset":5272,"byteLength":288,"target":34962,"byteStride":12},{"buffer":0,"byteOffset":5560,"byteLength":288,"target":34962,"byteStride":12},{"buffer":0,"byteOffset":5848,"byteLength":192,"target":34962,"byteStride":8},{"buffer":0,"byteOffset":6040,"byteLength":72,"target":34963},{"buffer":0,"byteOffset":6112,"byteLength":288,"target":34962,"byteStride":12},{"buffer":0,"byteOffset":6400,"byteLength":288,"target":34962,"byteStride":12},{"buffer":0,"byteOffset":6688,"byteLength":192,"target":34962,"byteStride":8},{"buffer":0,"byteOffset":6880,"byteLength":72,"target":34963},{"buffer":0,"byteOffset":6952,"byteLength":288,"target":34962,"byteStride":12},{"buffer":0,"byteOffset":7240,"byteLength":288,"target":34962,"byteStride":12},{"buffer":0,"byteOffset":7528,"byteLength":192,"target":34962,"byteStride":8},{"buffer":0,"byteOffset":7720,"byteLength":72,"target":34963},{"buffer":0,"byteOffset":7792,"byteLength":288,"target":34962,"byteStride":12},{"buffer":0,"byteOffset":8080,"byteLength":288,"target":34962,"byteStride":12},{"buffer":0,"byteOffset":8368,"byteLength":192,"target":34962,"byteStride":8},{"buffer":0,"byteOffset":8560,"byteLength":72,"target":34963},{"buffer":0,"byteOffset":8632,"byteLength":288,"target":34962,"byteStride":12},{"buffer":0,"byteOffset":8920,"byteLength":288,"target":34962,"byteStride":12},{"buffer":0,"byteOffset":9208,"byteLength":192,"target":34962,"byteStride":8},{"buffer":0,"byteOffset":9400,"byteLength":72,"target":34963}],"buffers":[{"byteLength":9472,"uri":"data:application/octet-stream;base64,"}],"accessors":[{"bufferView":0,"componentType":5126,"count":80,"max":[0.5,1.375,0.5],"min":[-0.5,0,-0.5],"type":"VEC3"},{"bufferView":1,"componentType":5126,"count":80,"max":[1,1,1],"min":[-1,-1,-1],"type":"VEC3"},{"bufferView":2,"componentType":5126,"count":80,"max":[0.3515625,0.484375],"min":[0,0],"type":"VEC2"},{"bufferView":3,"componentType":5123,"count":96,"max":[79],"min":[0],"type":"SCALAR"},{"bufferView":4,"componentType":5126,"count":24,"max":[0.0625,1.4375,0.3125],"min":[-0.5625,0.8125,-0.3125],"type":"VEC3"},{"bufferView":5,"componentType":5126,"count":24,"max":[1,1,1],"min":[-1,-1,-1],"type":"VEC3"},{"bufferView":6,"componentType":5126,"count":24,"max":[0.4375,0.4296875],"min":[0.1328125,0],"type":"VEC2"},{"bufferView":7,"componentType":5123,"count":36,"max":[23],"min":[0],"type":"SCALAR"},{"bufferView":8,"componentType":5126,"count":24,"max":[0.5,1.4375,0.1875],"min":[0.25,1.375,-0.1875],"type":"VEC3"},{"bufferView":9,"componentType":5126,"count":24,"max":[1,1,1],"min":[-1,-1,-1],"type":"VEC3"},{"bufferView":10,"componentType":5126,"count":24,"max":[0.515625,0.25],"min":[0.0625,0],"type":"VEC2"},{"bufferView":11,"componentType":5123,"count":36,"max":[23],"min":[0],"type":"SCALAR"},{"bufferView":12,"componentType":5126,"count":24,"max":[-0.5625,1.375,0.25],"min":[-0.59375,0.875,-0.25],"type":"VEC3"},{"bufferView":13,"componentType":5126,"count":24,"max":[1,1,1],"min":[-1,-1,-1],"type":"VEC3"},{"bufferView":14,"componentType":5126,"count":24,"max":[0.4765625,0.515625],"min":[0.1875,0.109375],"type":"VEC2"},{"bufferView":15,"componentType":5123,"count":36,"max":[23],"min":[0],"type":"SCALAR"},{"bufferView":16,"componentType":5126,"count":24,"max":[0.1875,1.25,0.5625],"min":[-0.1875,0.875,0.5],"type":"VEC3"},{"bufferView":17,"componentType":5126,"count":24,"max":[1,1,1],"min":[-1,-1,-1],"type":"VEC3"},{"bufferView":18,"componentType":5126,"count":24,"max":[0.515625,0.5234375],"min":[0.1796875,0.2578125],"type":"VEC2"},{"bufferView":19,"componentType":5123,"count":36,"max":[23],"min":[0],"type":"SCALAR"},{"bufferView":20,"componentType":5126,"count":24,"max":[0.1875,1.25,-0.5],"min":[-0.1875,0.875,-0.5625],"type":"VEC3"},{"bufferView":21,"componentType":5126,"count":24,"max":[1,1,1],"min":[-1,-1,-1],"type":"VEC3"},{"bufferView":22,"componentType":5126,"count":24,"max":[0.53125,0.5234375],"min":[0.1953125,0],"type":"VEC2"},{"bufferView":23,"componentType":5123,"count":36,"max":[23],"min":[0],"type":"SCALAR"},{"bufferView":24,"componentType":5126,"count":24,"max":[0.125,1.0625,0.78125],"min":[-0.125,0.1875,0.71875],"type":"VEC3"},{"bufferView":25,"componentType":5126,"count":24,"max":[1,1,1],"min":[-1,-1,-1],"type":"VEC3"},{"bufferView":26,"componentType":5126,"count":24,"max":[0.265625,0.53125],"min":[0.0625,0],"type":"VEC2"},{"bufferView":27,"componentType":5123,"count":36,"max":[23],"min":[0],"type":"SCALAR"},{"bufferView":28,"componentType":5126,"count":24,"max":[0.125,1.0625,-0.71875],"min":[-0.125,0.1875,-0.78125],"type":"VEC3"},{"bufferView":29,"componentType":5126,"count":24,"max":[1,1,1],"min":[-1,-1,-1],"type":"VEC3"},{"bufferView":30,"componentType":5126,"count":24,"max":[0.4609375,0.5625],"min":[0.140625,0.171875],"type":"VEC2"},{"bufferView":31,"componentType":5123,"count":36,"max":[23],"min":[0],"type":"SCALAR"},{"bufferView":32,"componentType":5126,"count":24,"max":[-0.5,0.5,0.125],"min":[-0.5625,0.0625,-0.125],"type":"VEC3"},{"bufferView":33,"componentType":5126,"count":24,"max":[1,1,1],"min":[-1,-1,-1],"type":"VEC3"},{"bufferView":34,"componentType":5126,"count":24,"max":[0.4765625,0.4921875],"min":[0.0625,0.109375],"type":"VEC2"},{"bufferView":35,"componentType":5123,"count":36,"max":[23],"min":[0],"type":"SCALAR"}],"materials":[{"pbrMetallicRoughness":{"metallicFactor":0,"roughnessFactor":1,"baseColorTexture":{"index":0}},"alphaMode":"MASK","alphaCutoff":0.05,"doubleSided":true}],"textures":[{"sampler":0,"source":0}],"samplers":[{"magFilter":9728,"minFilter":9728,"wrapS":33071,"wrapT":33071}],"images":[{"mimeType":"image/png","uri":"data:image/png;base64,"}],"meshes":[{"primitives":[{"mode":4,"attributes":{"POSITION":0,"NORMAL":1,"TEXCOORD_0":2},"indices":3,"material":0}]},{"primitives":[{"mode":4,"attributes":{"POSITION":4,"NORMAL":5,"TEXCOORD_0":6},"indices":7,"material":0}]},{"primitives":[{"mode":4,"attributes":{"POSITION":8,"NORMAL":9,"TEXCOORD_0":10},"indices":11,"material":0}]},{"primitives":[{"mode":4,"attributes":{"POSITION":12,"NORMAL":13,"TEXCOORD_0":14},"indices":15,"material":0}]},{"primitives":[{"mode":4,"attributes":{"POSITION":16,"NORMAL":17,"TEXCOORD_0":18},"indices":19,"material":0}]},{"primitives":[{"mode":4,"attributes":{"POSITION":20,"NORMAL":21,"TEXCOORD_0":22},"indices":23,"material":0}]},{"primitives":[{"mode":4,"attributes":{"POSITION":24,"NORMAL":25,"TEXCOORD_0":26},"indices":27,"material":0}]},{"primitives":[{"mode":4,"attributes":{"POSITION":28,"NORMAL":29,"TEXCOORD_0":30},"indices":31,"material":0}]},{"primitives":[{"mode":4,"attributes":{"POSITION":32,"NORMAL":33,"TEXCOORD_0":34},"indices":35,"material":0}]}]}