{"asset":{"version":"2.0","generator":"Blockbench 4.7.4 glTF exporter"},"scenes":[{"nodes":[22],"name":"blockbench_export"}],"scene":0,"nodes":[{"rotation":[0,0.7071067811865476,0,0.7071067811865476],"translation":[0,0.5,0],"name":"emmision2"},{"translation":[0.5,-0.125,0],"name":"cuboid","mesh":0},{"translation":[0.5,-0.125,0],"name":"cuboid","mesh":1},{"translation":[0.5,-0.140625,0],"name":"cuboid","mesh":2},{"rotation":[0,-1,0,6.123233995736766e-17],"translation":[0.5,-0.140625,0],"name":"cuboid","mesh":3},{"translation":[0.5,-0.125,0],"name":"cuboid","mesh":4},{"rotation":[0,0,-0.13052619222005157,0.9914448613738104],"translation":[-0.3125,-0.0625,0],"name":"cuboid","mesh":5},{"rotation":[0,0.7071067811865476,0,0.7071067811865476],"translation":[0,0.5,0],"name":"base","children":[1,2,3,4,5,6]},{"translation":[0.5,-0.125,0],"name":"cuboid","mesh":6},{"translation":[0.5,-0.125,0],"name":"cuboid","mesh":7},{"translation":[0.5,-0.125,0],"name":"cuboid","mesh":8},{"translation":[0.5,-0.140625,0],"name":"cuboid","mesh":9},{"rotation":[0,-1,0,6.123233995736766e-17],"translation":[0.5,-0.140625,0],"name":"cuboid","mesh":10},{"rotation":[0,0,-0.13052619222005157,0.9914448613738104],"translation":[-0.3125,-0.0625,0],"name":"cuboid","mesh":11},{"rotation":[0,0.7071067811865476,0,0.7071067811865476],"translation":[0,0.5,0],"name":"emmision","children":[8,9,10,11,12,13]},{"translation":[0.5,-0.125,0],"name":"cuboid","mesh":12},{"translation":[0.5,-0.125,0],"name":"cuboid","mesh":13},{"translation":[0.5,-0.125,0],"name":"cuboid","mesh":14},{"translation":[0.5,-0.140625,0],"name":"cuboid","mesh":15},{"rotation":[0,-1,0,6.123233995736766e-17],"translation":[0.5,-0.140625,0],"name":"cuboid","mesh":16},{"rotation":[0,0,-0.13052619222005157,0.9914448613738104],"translation":[-0.3125,-0.0625,0],"name":"cuboid","mesh":17},{"rotation":[0,0.7071067811865476,0,0.7071067811865476],"translation":[0,0.5,0],"name":"metallic","children":[15,16,17,18,19,20]},{"children":[0,7,14,21]}],"bufferViews":[{"buffer":0,"byteOffset":0,"byteLength":672,"target":34962,"byteStride":12},{"buffer":0,"byteOffset":672,"byteLength":672,"target":34962,"byteStride":12},{"buffer":0,"byteOffset":1344,"byteLength":448,"target":34962,"byteStride":8},{"buffer":0,"byteOffset":1792,"byteLength":168,"target":34963},{"buffer":0,"byteOffset":1960,"byteLength":672,"target":34962,"byteStride":12},{"buffer":0,"byteOffset":2632,"byteLength":672,"target":34962,"byteStride":12},{"buffer":0,"byteOffset":3304,"byteLength":448,"target":34962,"byteStride":8},{"buffer":0,"byteOffset":3752,"byteLength":168,"target":34963},{"buffer":0,"byteOffset":3920,"byteLength":480,"target":34962,"byteStride":12},{"buffer":0,"byteOffset":4400,"byteLength":480,"target":34962,"byteStride":12},{"buffer":0,"byteOffset":4880,"byteLength":320,"target":34962,"byteStride":8},{"buffer":0,"byteOffset":5200,"byteLength":120,"target":34963},{"buffer":0,"byteOffset":5320,"byteLength":480,"target":34962,"byteStride":12},{"buffer":0,"byteOffset":5800,"byteLength":480,"target":34962,"byteStride":12},{"buffer":0,"byteOffset":6280,"byteLength":320,"target":34962,"byteStride":8},{"buffer":0,"byteOffset":6600,"byteLength":120,"target":34963},{"buffer":0,"byteOffset":6720,"byteLength":480,"target":34962,"byteStride":12},{"buffer":0,"byteOffset":7200,"byteLength":480,"target":34962,"byteStride":12},{"buffer":0,"byteOffset":7680,"byteLength":320,"target":34962,"byteStride":8},{"buffer":0,"byteOffset":8000,"byteLength":120,"target":34963},{"buffer":0,"byteOffset":8120,"byteLength":960,"target":34962,"byteStride":12},{"buffer":0,"byteOffset":9080,"byteLength":960,"target":34962,"byteStride":12},{"buffer":0,"byteOffset":10040,"byteLength":640,"target":34962,"byteStride":8},{"buffer":0,"byteOffset":10680,"byteLength":240,"target":34963},{"buffer":0,"byteOffset":10920,"byteLength":672,"target":34962,"byteStride":12},{"buffer":0,"byteOffset":11592,"byteLength":672,"target":34962,"byteStride":12},{"buffer":0,"byteOffset":12264,"byteLength":448,"target":34962,"byteStride":8},{"buffer":0,"byteOffset":12712,"byteLength":168,"target":34963},{"buffer":0,"byteOffset":12880,"byteLength":672,"target":34962,"byteStride":12},{"buffer":0,"byteOffset":13552,"byteLength":672,"target":34962,"byteStride":12},{"buffer":0,"byteOffset":14224,"byteLength":448,"target":34962,"byteStride":8},{"buffer":0,"byteOffset":14672,"byteLength":168,"target":34963},{"buffer":0,"byteOffset":14840,"byteLength":480,"target":34962,"byteStride":12},{"buffer":0,"byteOffset":15320,"byteLength":480,"target":34962,"byteStride":12},{"buffer":0,"byteOffset":15800,"byteLength":320,"target":34962,"byteStride":8},{"buffer":0,"byteOffset":16120,"byteLength":120,"target":34963},{"buffer":0,"byteOffset":16240,"byteLength":480,"target":34962,"byteStride":12},{"buffer":0,"byteOffset":16720,"byteLength":480,"target":34962,"byteStride":12},{"buffer":0,"byteOffset":17200,"byteLength":320,"target":34962,"byteStride":8},{"buffer":0,"byteOffset":17520,"byteLength":120,"target":34963},{"buffer":0,"byteOffset":17640,"byteLength":480,"target":34962,"byteStride":12},{"buffer":0,"byteOffset":18120,"byteLength":480,"target":34962,"byteStride":12},{"buffer":0,"byteOffset":18600,"byteLength":320,"target":34962,"byteStride":8},{"buffer":0,"byteOffset":18920,"byteLength":120,"target":34963},{"buffer":0,"byteOffset":19040,"byteLength":960,"target":34962,"byteStride":12},{"buffer":0,"byteOffset":20000,"byteLength":960,"target":34962,"byteStride":12},{"buffer":0,"byteOffset":20960,"byteLength":640,"target":34962,"byteStride":8},{"buffer":0,"byteOffset":21600,"byteLength":240,"target":34963},{"buffer":0,"byteOffset":21840,"byteLength":672,"target":34962,"byteStride":12},{"buffer":0,"byteOffset":22512,"byteLength":672,"target":34962,"byteStride":12},{"buffer":0,"byteOffset":23184,"byteLength":448,"target":34962,"byteStride":8},{"buffer":0,"byteOffset":23632,"byteLength":168,"target":34963},{"buffer":0,"byteOffset":23800,"byteLength":672,"target":34962,"byteStride":12},{"buffer":0,"byteOffset":24472,"byteLength":672,"target":34962,"byteStride":12},{"buffer":0,"byteOffset":25144,"byteLength":448,"target":34962,"byteStride":8},{"buffer":0,"byteOffset":25592,"byteLength":168,"target":34963},{"buffer":0,"byteOffset":25760,"byteLength":480,"target":34962,"byteStride":12},{"buffer":0,"byteOffset":26240,"byteLength":480,"target":34962,"byteStride":12},{"buffer":0,"byteOffset":26720,"byteLength":320,"target":34962,"byteStride":8},{"buffer":0,"byteOffset":27040,"byteLength":120,"target":34963},{"buffer":0,"byteOffset":27160,"byteLength":480,"target":34962,"byteStride":12},{"buffer":0,"byteOffset":27640,"byteLength":480,"target":34962,"byteStride":12},{"buffer":0,"byteOffset":28120,"byteLength":320,"target":34962,"byteStride":8},{"buffer":0,"byteOffset":28440,"byteLength":120,"target":34963},{"buffer":0,"byteOffset":28560,"byteLength":480,"target":34962,"byteStride":12},{"buffer":0,"byteOffset":29040,"byteLength":480,"target":34962,"byteStride":12},{"buffer":0,"byteOffset":29520,"byteLength":320,"target":34962,"byteStride":8},{"buffer":0,"byteOffset":29840,"byteLength":120,"target":34963},{"buffer":0,"byteOffset":29960,"byteLength":960,"target":34962,"byteStride":12},{"buffer":0,"byteOffset":30920,"byteLength":960,"target":34962,"byteStride":12},{"buffer":0,"byteOffset":31880,"byteLength":640,"target":34962,"byteStride":8},{"buffer":0,"byteOffset":32520,"byteLength":240,"target":34963}],"buffers":[{"byteLength":32760,"uri":"data:application/octet-stream;base64,"}],"accessors":[{"bufferView":0,"componentType":5126,"count":56,"max":[0.125,0.5,0.125],"min":[-0.34375,0,-0.125],"type":"VEC3"},{"bufferView":1,"componentType":5126,"count":56,"max":[1,1,1],"min":[-1,-1,-1],"type":"VEC3"},{"bufferView":2,"componentType":5126,"count":56,"max":[0.59375,0.4375],"min":[0,0],"type":"VEC2"},{"bufferView":3,"componentType":5123,"count":84,"max":[55],"min":[0],"type":"SCALAR"},{"bufferView":4,"componentType":5126,"count":56,"max":[-0.34375,0.4375,0.109375],"min":[-1.140625,0.09375,-0.109375],"type":"VEC3"},{"bufferView":5,"componentType":5126,"count":56,"max":[1,1,1],"min":[-1,-1,-1],"type":"VEC3"},{"bufferView":6,"componentType":5126,"count":56,"max":[0.65625,0.5234375],"min":[0,0],"type":"VEC2"},{"bufferView":7,"componentType":5123,"count":84,"max":[55],"min":[0],"type":"SCALAR"},{"bufferView":8,"componentType":5126,"count":40,"max":[0.0625,0.40625,0.1875],"min":[-0.234375,0.09375,0.125],"type":"VEC3"},{"bufferView":9,"componentType":5126,"count":40,"max":[1,1,1],"min":[-1,-1,-1],"type":"VEC3"},{"bufferView":10,"componentType":5126,"count":40,"max":[0.609375,0.59375],"min":[0.28125,0.046875],"type":"VEC2"},{"bufferView":11,"componentType":5123,"count":60,"max":[39],"min":[0],"type":"SCALAR"},{"bufferView":12,"componentType":5126,"count":40,"max":[0.234375,0.40625,0.1875],"min":[-0.0625,0.09375,0.125],"type":"VEC3"},{"bufferView":13,"componentType":5126,"count":40,"max":[1,1,1],"min":[-1,-1,-1],"type":"VEC3"},{"bufferView":14,"componentType":5126,"count":40,"max":[0.625,0.59375],"min":[0,0],"type":"VEC2"},{"bufferView":15,"componentType":5123,"count":60,"max":[39],"min":[0],"type":"SCALAR"},{"bufferView":16,"componentType":5126,"count":40,"max":[-0.71875,0.5,0.11093749850988388],"min":[-0.96875,0.125,-0.11093749850988388],"type":"VEC3"},{"bufferView":17,"componentType":5126,"count":40,"max":[1,1,1],"min":[-1,-1,-1],"type":"VEC3"},{"bufferView":18,"componentType":5126,"count":40,"max":[0.59375,0.5625],"min":[0,0.171875],"type":"VEC2"},{"bufferView":19,"componentType":5123,"count":60,"max":[39],"min":[0],"type":"SCALAR"},{"bufferView":20,"componentType":5126,"count":80,"max":[0.09367027133703232,0.0625,0.0625],"min":[-0.15625,-0.3750333786010742,-0.0625],"type":"VEC3"},{"bufferView":21,"componentType":5126,"count":80,"max":[1,1,1],"min":[-1,-1,-1],"type":"VEC3"},{"bufferView":22,"componentType":5126,"count":80,"max":[0.5367867350578308,0.578125],"min":[0.0005906249862164259,0.265625],"type":"VEC2"},{"bufferView":23,"componentType":5123,"count":120,"max":[79],"min":[0],"type":"SCALAR"},{"bufferView":24,"componentType":5126,"count":56,"max":[0.125,0.5,0.125],"min":[-0.34375,0,-0.125],"type":"VEC3"},{"bufferView":25,"componentType":5126,"count":56,"max":[1,1,1],"min":[-1,-1,-1],"type":"VEC3"},{"bufferView":26,"componentType":5126,"count":56,"max":[0.59375,0.4375],"min":[0,0],"type":"VEC2"},{"bufferView":27,"componentType":5123,"count":84,"max":[55],"min":[0],"type":"SCALAR"},{"bufferView":28,"componentType":5126,"count":56,"max":[-0.34375,0.4375,0.109375],"min":[-1.140625,0.09375,-0.109375],"type":"VEC3"},{"bufferView":29,"componentType":5126,"count":56,"max":[1,1,1],"min":[-1,-1,-1],"type":"VEC3"},{"bufferView":30,"componentType":5126,"count":56,"max":[0.65625,0.5234375],"min":[0,0],"type":"VEC2"},{"bufferView":31,"componentType":5123,"count":84,"max":[55],"min":[0],"type":"SCALAR"},{"bufferView":32,"componentType":5126,"count":40,"max":[-0.71875,0.5,0.11093749850988388],"min":[-0.96875,0.125,-0.11093749850988388],"type":"VEC3"},{"bufferView":33,"componentType":5126,"count":40,"max":[1,1,1],"min":[-1,-1,-1],"type":"VEC3"},{"bufferView":34,"componentType":5126,"count":40,"max":[0.59375,0.5625],"min":[0,0.171875],"type":"VEC2"},{"bufferView":35,"componentType":5123,"count":60,"max":[39],"min":[0],"type":"SCALAR"},{"bufferView":36,"componentType":5126,"count":40,"max":[0.0625,0.40625,0.1875],"min":[-0.234375,0.09375,0.125],"type":"VEC3"},{"bufferView":37,"componentType":5126,"count":40,"max":[1,1,1],"min":[-1,-1,-1],"type":"VEC3"},{"bufferView":38,"componentType":5126,"count":40,"max":[0.609375,0.59375],"min":[0.28125,0.046875],"type":"VEC2"},{"bufferView":39,"componentType":5123,"count":60,"max":[39],"min":[0],"type":"SCALAR"},{"bufferView":40,"componentType":5126,"count":40,"max":[0.234375,0.40625,0.1875],"min":[-0.0625,0.09375,0.125],"type":"VEC3"},{"bufferView":41,"componentType":5126,"count":40,"max":[1,1,1],"min":[-1,-1,-1],"type":"VEC3"},{"bufferView":42,"componentType":5126,"count":40,"max":[0.625,0.59375],"min":[0,0],"type":"VEC2"},{"bufferView":43,"componentType":5123,"count":60,"max":[39],"min":[0],"type":"SCALAR"},{"bufferView":44,"componentType":5126,"count":80,"max":[0.09367027133703232,0.0625,0.0625],"min":[-0.15625,-0.3750333786010742,-0.0625],"type":"VEC3"},{"bufferView":45,"componentType":5126,"count":80,"max":[1,1,1],"min":[-1,-1,-1],"type":"VEC3"},{"bufferView":46,"componentType":5126,"count":80,"max":[0.5367867350578308,0.578125],"min":[0.0005906249862164259,0.265625],"type":"VEC2"},{"bufferView":47,"componentType":5123,"count":120,"max":[79],"min":[0],"type":"SCALAR"},{"bufferView":48,"componentType":5126,"count":56,"max":[0.125,0.5,0.125],"min":[-0.34375,0,-0.125],"type":"VEC3"},{"bufferView":49,"componentType":5126,"count":56,"max":[1,1,1],"min":[-1,-1,-1],"type":"VEC3"},{"bufferView":50,"componentType":5126,"count":56,"max":[0.59375,0.4375],"min":[0,0],"type":"VEC2"},{"bufferView":51,"componentType":5123,"count":84,"max":[55],"min":[0],"type":"SCALAR"},{"bufferView":52,"componentType":5126,"count":56,"max":[-0.34375,0.4375,0.109375],"min":[-1.140625,0.09375,-0.109375],"type":"VEC3"},{"bufferView":53,"componentType":5126,"count":56,"max":[1,1,1],"min":[-1,-1,-1],"type":"VEC3"},{"bufferView":54,"componentType":5126,"count":56,"max":[0.65625,0.5234375],"min":[0,0],"type":"VEC2"},{"bufferView":55,"componentType":5123,"count":84,"max":[55],"min":[0],"type":"SCALAR"},{"bufferView":56,"componentType":5126,"count":40,"max":[-0.71875,0.5,0.11093749850988388],"min":[-0.96875,0.125,-0.11093749850988388],"type":"VEC3"},{"bufferView":57,"componentType":5126,"count":40,"max":[1,1,1],"min":[-1,-1,-1],"type":"VEC3"},{"bufferView":58,"componentType":5126,"count":40,"max":[0.59375,0.5625],"min":[0,0.171875],"type":"VEC2"},{"bufferView":59,"componentType":5123,"count":60,"max":[39],"min":[0],"type":"SCALAR"},{"bufferView":60,"componentType":5126,"count":40,"max":[0.0625,0.40625,0.1875],"min":[-0.234375,0.09375,0.125],"type":"VEC3"},{"bufferView":61,"componentType":5126,"count":40,"max":[1,1,1],"min":[-1,-1,-1],"type":"VEC3"},{"bufferView":62,"componentType":5126,"count":40,"max":[0.609375,0.59375],"min":[0.28125,0.046875],"type":"VEC2"},{"bufferView":63,"componentType":5123,"count":60,"max":[39],"min":[0],"type":"SCALAR"},{"bufferView":64,"componentType":5126,"count":40,"max":[0.234375,0.40625,0.1875],"min":[-0.0625,0.09375,0.125],"type":"VEC3"},{"bufferView":65,"componentType":5126,"count":40,"max":[1,1,1],"min":[-1,-1,-1],"type":"VEC3"},{"bufferView":66,"componentType":5126,"count":40,"max":[0.625,0.59375],"min":[0,0],"type":"VEC2"},{"bufferView":67,"componentType":5123,"count":60,"max":[39],"min":[0],"type":"SCALAR"},{"bufferView":68,"componentType":5126,"count":80,"max":[0.09367027133703232,0.0625,0.0625],"min":[-0.15625,-0.3750333786010742,-0.0625],"type":"VEC3"},{"bufferView":69,"componentType":5126,"count":80,"max":[1,1,1],"min":[-1,-1,-1],"type":"VEC3"},{"bufferView":70,"componentType":5126,"count":80,"max":[0.5367867350578308,0.578125],"min":[0.0005906249862164259,0.265625],"type":"VEC2"},{"bufferView":71,"componentType":5123,"count":120,"max":[79],"min":[0],"type":"SCALAR"}],"materials":[{"pbrMetallicRoughness":{"metallicFactor":0,"roughnessFactor":1,"baseColorTexture":{"index":0}},"alphaMode":"MASK","alphaCutoff":0.05,"doubleSided":true},{"pbrMetallicRoughness":{"metallicFactor":0,"roughnessFactor":1,"baseColorTexture":{"index":1}},"alphaMode":"MASK","alphaCutoff":0.05,"doubleSided":true},{"pbrMetallicRoughness":{"metallicFactor":0,"roughnessFactor":1,"baseColorTexture":{"index":2}},"alphaMode":"MASK","alphaCutoff":0.05,"doubleSided":true}],"textures":[{"sampler":0,"source":0,"name":"0x10c_weapon64xBase.png"},{"sampler":1,"source":1,"name":"0x10c_weapon64xEmission.png"},{"sampler":2,"source":2,"name":"0x10c_weapon64xMetalic.png"}],"samplers":[{"magFilter":9728,"minFilter":9728,"wrapS":33071,"wrapT":33071},{"magFilter":9728,"minFilter":9728,"wrapS":33071,"wrapT":33071},{"magFilter":9728,"minFilter":9728,"wrapS":33071,"wrapT":33071}],"images":[{"mimeType":"image/png","uri":"data:image/png;base64,"},{"mimeType":"image/png","uri":"data:image/png;base64,"},{"mimeType":"image/png","uri":"data:image/png;base64,"}],"meshes":[{"primitives":[{"mode":4,"attributes":{"POSITION":0,"NORMAL":1,"TEXCOORD_0":2},"indices":3,"material":0}]},{"primitives":[{"mode":4,"attributes":{"POSITION":4,"NORMAL":5,"TEXCOORD_0":6},"indices":7,"material":0}]},{"primitives":[{"mode":4,"attributes":{"POSITION":8,"NORMAL":9,"TEXCOORD_0":10},"indices":11,"material":0}]},{"primitives":[{"mode":4,"attributes":{"POSITION":12,"NORMAL":13,"TEXCOORD_0":14},"indices":15,"material":0}]},{"primitives":[{"mode":4,"attributes":{"POSITION":16,"NORMAL":17,"TEXCOORD_0":18},"indices":19,"material":0}]},{"primitives":[{"mode":4,"attributes":{"POSITION":20,"NORMAL":21,"TEXCOORD_0":22},"indices":23,"material":0}]},{"primitives":[{"mode":4,"attributes":{"POSITION":24,"NORMAL":25,"TEXCOORD_0":26},"indices":27,"material":1}]},{"primitives":[{"mode":4,"attributes":{"POSITION":28,"NORMAL":29,"TEXCOORD_0":30},"indices":31,"material":1}]},{"primitives":[{"mode":4,"attributes":{"POSITION":32,"NORMAL":33,"TEXCOORD_0":34},"indices":35,"material":1}]},{"primitives":[{"mode":4,"attributes":{"POSITION":36,"NORMAL":37,"TEXCOORD_0":38},"indices":39,"material":1}]},{"primitives":[{"mode":4,"attributes":{"POSITION":40,"NORMAL":41,"TEXCOORD_0":42},"indices":43,"material":1}]},{"primitives":[{"mode":4,"attributes":{"POSITION":44,"NORMAL":45,"TEXCOORD_0":46},"indices":47,"material":1}]},{"primitives":[{"mode":4,"attributes":{"POSITION":48,"NORMAL":49,"TEXCOORD_0":50},"indices":51,"material":2}]},{"primitives":[{"mode":4,"attributes":{"POSITION":52,"NORMAL":53,"TEXCOORD_0":54},"indices":55,"material":2}]},{"primitives":[{"mode":4,"attributes":{"POSITION":56,"NORMAL":57,"TEXCOORD_0":58},"indices":59,"material":2}]},{"primitives":[{"mode":4,"attributes":{"POSITION":60,"NORMAL":61,"TEXCOORD_0":62},"indices":63,"material":2}]},{"primitives":[{"mode":4,"attributes":{"POSITION":64,"NORMAL":65,"TEXCOORD_0":66},"indices":67,"material":2}]},{"primitives":[{"mode":4,"attributes":{"POSITION":68,"NORMAL":69,"TEXCOORD_0":70},"indices":71,"material":2}]}]}